<?xml version="1.0" standalone="no"?>
<!DOCTYPE svg PUBLIC "-//W3C//DTD SVG 20010904//EN"
 "http://www.w3.org/TR/2001/REC-SVG-20010904/DTD/svg10.dtd">
<svg version="1.0" xmlns="http://www.w3.org/2000/svg"
 width="553.000000pt" height="553.000000pt" viewBox="0 0 553.000000 553.000000"
 preserveAspectRatio="xMidYMid meet">
<metadata>
Created by potrace 1.14, written by Peter Selinger 2001-2017
</metadata>
<g transform="translate(0.000000,553.000000) scale(0.100000,-0.100000)"
fill="#000000" stroke="none">
<path d="M5380 4793 c-5 -184 -6 -199 -27 -238 -38 -70 -35 -69 -90 -16 -74
71 -170 97 -264 71 -50 -14 -125 -82 -139 -126 -28 -85 9 -184 91 -244 36 -26
39 -31 23 -37 -39 -16 -276 -7 -376 14 -92 20 -100 24 -170 82 -403 336 -888
460 -1380 350 -463 -102 -773 -327 -1021 -740 l-62 -104 -50 8 c-103 16 -243
-18 -328 -79 -26 -19 -50 -34 -53 -34 -4 0 -28 20 -54 44 -107 100 -265 141
-395 101 l-49 -14 -44 40 c-163 151 -432 121 -550 -62 -33 -51 -41 -58 -79
-64 -66 -11 -126 -55 -154 -111 -62 -129 -19 -288 94 -350 68 -37 165 -37 239
-1 l51 25 43 -46 42 -47 -36 -30 c-21 -16 -48 -42 -62 -57 -20 -24 -33 -28
-75 -28 -310 -1 -478 -186 -502 -553 -19 -293 97 -558 319 -732 130 -102 269
-155 406 -155 68 0 80 -3 133 -36 265 -161 632 -253 1005 -254 l91 0 37 -112
c70 -210 161 -349 239 -363 44 -8 68 -1 108 32 l30 26 28 -27 c86 -82 188 -34
272 127 l33 65 49 -80 c61 -99 164 -210 221 -237 72 -35 116 -28 198 31 13 10
25 5 70 -29 29 -22 63 -46 75 -52 36 -18 93 -13 137 13 83 49 132 149 151 309
4 31 9 57 11 57 2 0 21 -18 41 -41 72 -79 140 -89 214 -29 l40 31 42 -20 c72
-35 133 -22 175 36 l20 28 54 -51 c113 -107 200 -118 270 -35 15 17 29 31 32
31 3 0 27 -15 53 -34 101 -71 159 -68 245 11 84 79 86 93 92 520 3 202 10 445
16 538 13 211 54 582 76 695 25 125 25 463 1 585 -24 120 -70 268 -111 357
l-34 73 72 25 c145 51 253 135 337 261 31 46 60 95 64 109 4 14 35 54 68 89
75 81 108 152 115 247 5 85 -13 152 -59 207 -27 33 -59 49 -59 30z m60 -95
c51 -118 23 -251 -74 -356 -64 -69 -170 -122 -246 -122 -82 0 -183 57 -217
123 -41 80 -8 178 72 217 111 54 288 -6 307 -103 2 -13 -10 -26 -41 -43 l-45
-24 -12 28 c-34 80 -133 102 -163 35 -28 -62 5 -96 96 -95 44 0 72 8 122 34
108 55 174 164 175 290 1 32 2 58 4 58 2 0 11 -19 22 -42z m-1893 -53 c292
-20 607 -160 878 -387 286 -240 446 -491 516 -810 81 -372 13 -827 -182 -1222
-55 -110 -67 -128 -80 -120 -5 3 -6 -2 -3 -10 5 -14 -40 -92 -75 -127 -9 -9
-25 -29 -36 -45 -38 -55 -107 -124 -118 -117 -5 3 -7 2 -4 -4 4 -5 -8 -22 -26
-36 -18 -14 -43 -35 -56 -46 -23 -20 -36 -25 -54 -22 -5 1 -6 -3 -3 -8 4 -5
-3 -12 -14 -16 -11 -3 -20 -11 -20 -17 0 -5 -7 -7 -16 -4 -10 4 -13 2 -8 -6 5
-7 2 -9 -9 -5 -12 4 -14 2 -10 -10 4 -11 2 -14 -5 -9 -7 4 -12 3 -12 -3 0 -6
-7 -7 -17 -4 -11 4 -14 3 -9 -5 4 -7 -9 -19 -34 -32 -22 -11 -40 -17 -40 -14
0 4 -8 0 -18 -9 -25 -23 -92 -49 -109 -43 -8 3 -11 1 -8 -4 3 -6 1 -11 -4 -11
-21 -3 -26 -4 -41 -14 -13 -8 -13 -7 -1 8 16 20 3 22 -21 3 -10 -7 -14 -17
-10 -21 4 -5 -1 -5 -10 -2 -11 4 -18 2 -18 -5 0 -6 -3 -8 -7 -5 -3 4 -12 2
-20 -5 -7 -6 -16 -8 -20 -5 -3 4 -12 2 -19 -4 -7 -6 -27 -11 -44 -11 -17 -1
-33 -5 -36 -10 -3 -5 -13 -3 -22 4 -12 10 -14 10 -8 1 4 -7 2 -13 -3 -13 -6 0
-11 5 -11 10 0 6 -5 10 -11 10 -5 0 -7 -4 -4 -10 3 -5 3 -10 -2 -11 -4 0 -16
-2 -25 -4 -11 -2 -15 2 -11 11 7 20 -45 38 -73 26 -22 -11 -54 0 -36 12 6 3
13 0 15 -6 4 -9 6 -8 6 3 1 8 13 20 29 27 25 10 25 11 2 6 -34 -8 -90 -46 -90
-61 0 -7 -4 -13 -9 -13 -11 0 -32 -56 -24 -64 3 -3 0 -12 -7 -21 -8 -10 -14
-66 -18 -169 l-5 -154 -36 -6 c-85 -15 -222 -18 -302 -7 -156 21 -317 91 -354
154 -22 37 -37 100 -22 90 7 -4 8 0 4 11 -4 10 -2 26 3 37 6 10 12 36 15 56 2
21 9 58 15 82 6 24 8 46 5 49 -3 3 -5 -2 -5 -11 0 -13 -9 -17 -41 -17 -22 0
-38 -4 -35 -8 2 -4 0 -14 -5 -22 -9 -13 -10 -13 -8 0 3 29 -1 50 -10 50 -9 0
-7 -35 4 -70 6 -20 5 -21 -8 -9 -8 8 -13 17 -11 21 2 3 -1 17 -6 30 -10 23
-10 23 -6 1 2 -13 -1 -26 -7 -30 -7 -3 -9 -2 -4 2 4 5 0 19 -9 32 -8 14 -17
34 -19 46 -3 11 -10 24 -16 27 -7 5 -5 9 6 13 11 5 14 3 10 -6 -4 -6 2 -2 12
9 11 13 28 21 45 20 14 -1 26 1 25 4 -3 10 28 50 39 50 6 0 17 7 24 15 11 13
15 13 23 3 6 -9 7 -8 3 4 -6 20 31 51 48 41 6 -3 8 -3 4 2 -8 9 20 40 36 40 6
0 11 7 11 15 1 8 7 13 15 12 8 -2 12 -1 8 3 -4 4 14 35 40 69 65 85 126 206
157 311 36 125 36 246 0 420 -32 156 -30 215 17 440 35 167 43 334 20 435 -34
147 -131 272 -259 333 -58 27 -81 32 -155 34 -58 1 -95 7 -110 17 -32 21 -106
46 -136 46 -47 0 -101 -23 -133 -56 -85 -88 -19 -259 125 -325 22 -10 52 -19
66 -19 45 -1 52 -12 40 -64 -9 -42 -42 -115 -68 -154 -7 -11 -27 -4 -91 33
l-81 48 0 52 c0 62 -27 157 -63 217 -36 61 -128 145 -191 174 l-55 25 54 91
c85 146 162 245 280 363 166 166 299 248 533 326 143 49 286 78 417 87 102 7
143 7 272 -3z m1571 -201 c12 -8 27 -24 32 -35 10 -17 7 -19 -33 -19 -55 0
-78 17 -66 48 10 26 35 28 67 6z m150 -229 c-6 -14 -15 -25 -20 -25 -5 0 -7
-4 -4 -9 9 -13 -78 -124 -137 -176 -61 -53 -169 -112 -241 -131 -65 -17 -64
-18 -71 5 -8 26 -87 125 -185 232 l-78 85 62 -13 c161 -34 338 -33 436 1 25 9
72 16 105 16 37 0 75 8 100 19 22 11 41 20 42 20 2 1 -3 -10 -9 -24z m-4473
-286 c72 -13 123 -38 176 -86 l40 -36 -43 -27 c-24 -15 -54 -39 -67 -53 -22
-24 -26 -25 -50 -13 -43 22 -78 27 -105 15 -29 -14 -56 -64 -56 -106 0 -43
-28 -149 -49 -191 -28 -55 -102 -119 -153 -132 -62 -17 -140 -8 -182 21 -20
13 -48 47 -63 74 -73 132 5 314 134 315 31 0 31 0 25 -42 -9 -63 -8 -93 3 -96
6 -1 11 23 13 54 7 120 70 222 165 269 44 21 70 29 148 44 3 1 32 -4 64 -10z
m464 -109 c75 -14 152 -56 207 -111 42 -42 47 -52 36 -67 -36 -51 -69 -112
-84 -157 -25 -72 -24 -199 2 -276 25 -74 20 -83 -70 -123 -155 -70 -326 -33
-445 96 -145 156 -135 393 23 540 93 87 209 121 331 98z m1274 -15 c20 -9 37
-20 37 -24 0 -3 -23 -18 -51 -34 -27 -15 -47 -32 -44 -37 4 -6 18 -2 35 10 73
52 185 64 284 30 132 -45 222 -140 272 -286 39 -114 37 -244 -6 -454 -45 -218
-50 -340 -19 -467 34 -139 34 -317 1 -423 -108 -341 -418 -598 -822 -681 -126
-26 -434 -36 -591 -20 -144 15 -325 53 -437 92 -94 33 -337 147 -329 155 3 3
45 13 93 23 398 82 674 360 674 679 0 93 -21 175 -70 277 -80 165 -197 266
-370 322 -49 15 -90 31 -90 36 0 4 17 7 38 7 60 0 187 36 257 73 l63 33 39
-51 c48 -62 128 -116 214 -145 53 -18 81 -21 160 -18 87 3 104 7 171 40 120
60 223 183 243 291 4 20 11 40 16 43 5 3 42 -13 83 -35 40 -23 78 -41 83 -41
18 0 83 125 95 182 11 52 15 58 42 63 17 4 40 9 50 12 17 5 18 1 12 -38 -12
-77 -47 -183 -76 -230 l-28 -46 81 -75 c45 -42 100 -98 122 -126 22 -28 44
-51 48 -52 13 0 75 140 93 209 12 47 15 93 12 165 -6 118 -25 172 -88 240
l-41 44 -75 -39 c-66 -35 -83 -39 -146 -39 -90 0 -138 15 -187 57 -61 52 -84
96 -85 163 -1 52 2 62 29 90 50 52 131 62 208 25z m-552 -45 c119 -40 203
-115 256 -227 91 -190 36 -404 -136 -534 -230 -172 -578 -54 -665 226 -28 89
-19 221 20 305 55 115 159 206 272 236 74 20 184 17 253 -6z m-1302 -405 c29
-43 114 -107 133 -100 8 3 21 -8 32 -30 43 -79 166 -166 258 -182 42 -7 42 -7
13 -14 -60 -14 -138 -8 -322 21 -103 17 -192 32 -198 34 -15 5 61 74 107 97
l39 20 -61 66 c-64 70 -66 74 -50 104 15 26 21 24 49 -16z m181 -334 c96 -17
211 -40 255 -51 100 -26 227 -87 283 -135 114 -98 212 -314 212 -464 0 -102
-55 -269 -97 -294 -7 -5 -10 -14 -7 -20 4 -7 3 -9 -1 -4 -5 4 -29 -12 -54 -37
-95 -91 -233 -167 -383 -210 -85 -25 -214 -47 -222 -38 -3 2 -1 14 3 26 5 12
3 38 -4 61 -12 39 -12 40 -22 15 -14 -34 -51 -65 -92 -79 -112 -37 -271 29
-259 108 5 36 -2 39 -28 10 -32 -35 -51 -41 -81 -25 -46 23 -104 74 -151 129
-24 29 -55 65 -70 81 -15 17 -20 26 -12 21 12 -7 12 -5 -1 11 -55 64 -89 205
-89 367 0 304 100 485 305 554 68 22 309 10 515 -26z m4031 -653 c-13 -127
-28 -401 -37 -694 l-6 -221 -52 -33 c-28 -18 -70 -46 -94 -62 -55 -38 -171
-91 -247 -114 -71 -21 -247 -24 -313 -5 -32 9 -50 22 -70 51 -15 22 -47 67
-70 101 -24 34 -40 64 -35 68 4 4 51 27 103 51 52 24 147 78 210 119 63 42
119 74 123 73 5 -1 6 2 2 7 -6 11 28 33 39 26 3 -3 4 -2 1 1 -2 4 29 43 71 87
41 43 102 118 135 166 33 47 65 85 71 83 5 -1 7 2 3 7 -5 10 62 150 85 179 6
6 9 12 6 12 -3 0 8 29 24 65 16 36 35 83 41 105 7 22 14 38 17 36 2 -3 -1 -51
-7 -108z m-2286 -1022 c30 -65 52 -123 48 -129 -3 -5 -1 -7 4 -4 15 10 25 -37
14 -66 -7 -18 -22 -26 -67 -36 -132 -30 -322 -7 -496 59 -57 21 -58 22 -74 78
-8 31 -20 70 -25 86 -15 49 -12 56 27 56 112 0 407 73 467 115 21 15 23 14 34
-12 7 -16 37 -81 68 -147z m908 74 c-3 -11 -11 -20 -18 -20 -10 0 -11 5 -2 24
14 28 28 25 20 -4z m87 15 c16 -20 1 -38 -24 -29 -14 5 -15 9 -4 15 11 7 10
11 -2 19 -13 8 -13 10 1 10 9 0 22 -7 29 -15z m-874 -22 c-10 -10 -19 5 -10
18 6 11 8 11 12 0 2 -7 1 -15 -2 -18z m821 11 c-4 -4 2 -19 13 -34 18 -26 19
-28 3 -25 -10 1 -17 9 -15 19 2 9 -2 16 -8 16 -5 0 -10 7 -10 15 0 8 5 15 12
15 6 0 8 -3 5 -6z m-858 -11 c0 -5 -4 -17 -9 -28 -8 -18 -9 -17 -9 8 -1 15 4
27 9 27 6 0 10 -3 9 -7z m1224 -42 c11 7 17 6 17 0 0 -10 19 -9 38 2 6 5 12 4
12 -2 0 -5 14 -25 30 -43 17 -18 30 -36 30 -40 0 -13 -73 -29 -161 -35 -98 -7
-239 4 -239 18 0 13 43 76 53 78 4 0 12 1 18 1 5 0 8 3 6 8 -3 4 26 7 64 6 38
-1 69 3 69 7 0 5 10 5 23 0 14 -5 30 -5 40 0z m-1253 -11 c0 -5 -2 -10 -4 -10
-3 0 -8 5 -11 10 -3 6 -1 10 4 10 6 0 11 -4 11 -10z m837 4 c-3 -3 -12 -4 -19
-1 -8 3 -5 6 6 6 11 1 17 -2 13 -5z m153 -9 c0 -2 -6 -8 -13 -14 -10 -8 -14
-7 -14 2 0 8 6 14 14 14 7 0 13 -1 13 -2z"/>
<path d="M2794 1624 c-18 -14 -18 -15 4 -4 12 6 22 13 22 15 0 8 -5 6 -26 -11z"/>
<path d="M2750 1581 c-5 -11 -10 -26 -9 -33 0 -7 5 -1 11 15 5 15 14 24 20 21
7 -4 8 -2 4 4 -10 16 -14 15 -26 -7z"/>
<path d="M4048 1563 c6 -2 10 -9 7 -14 -4 -5 1 -6 9 -3 20 8 11 24 -12 23 -11
0 -12 -2 -4 -6z"/>
<path d="M3771 1556 c2 -2 18 -6 34 -10 22 -5 26 -4 15 4 -14 9 -59 15 -49 6z"/>
<path d="M2639 1537 c6 -8 7 -18 3 -22 -4 -5 -1 -5 6 -1 10 6 10 11 1 22 -6 8
-14 14 -16 14 -3 0 0 -6 6 -13z"/>
<path d="M2710 1529 c0 -5 5 -7 10 -4 6 3 10 8 10 11 0 2 -4 4 -10 4 -5 0 -10
-5 -10 -11z"/>
<path d="M2750 1520 c-9 -6 -10 -10 -3 -10 6 0 15 5 18 10 8 12 4 12 -15 0z"/>
<path d="M3803 1486 c-13 -6 -23 -16 -23 -23 0 -8 10 -4 25 9 21 18 32 32 23
27 -2 -1 -13 -6 -25 -13z"/>
<path d="M2590 1480 c0 -5 5 -10 11 -10 5 0 7 5 4 10 -3 6 -8 10 -11 10 -2 0
-4 -4 -4 -10z"/>
<path d="M3829 1473 c-13 -17 -13 -17 6 -3 11 8 22 16 24 17 2 2 0 3 -6 3 -6
0 -17 -8 -24 -17z"/>
<path d="M1145 3529 c-63 -55 -66 -140 -8 -201 55 -58 144 -55 201 6 28 31 32
42 32 92 0 52 -3 59 -39 95 -36 36 -43 39 -94 39 -49 0 -61 -4 -92 -31z m119
0 c32 -25 34 -64 4 -96 -29 -31 -71 -30 -97 3 -27 35 -26 59 4 89 30 30 54 31
89 4z"/>
<path d="M1635 3501 c-115 -52 -139 -180 -51 -267 52 -52 108 -65 174 -39 139
56 144 244 8 306 -51 23 -80 23 -131 0z m108 -30 c29 -29 25 -90 -8 -118 -29
-26 -55 -29 -88 -11 -56 29 -63 84 -17 130 26 25 36 29 63 24 18 -4 40 -15 50
-25z"/>
<path d="M294 2881 c-17 -10 -38 -34 -47 -54 -23 -48 -22 -160 2 -212 20 -46
79 -102 117 -111 70 -18 156 23 207 98 26 38 28 50 25 105 -3 51 -9 69 -34
100 -67 84 -196 119 -270 74z"/>
<path d="M1060 2822 c-81 -43 -111 -189 -61 -294 29 -60 89 -115 135 -124 111
-20 232 73 252 193 5 35 2 53 -21 99 -56 115 -208 177 -305 126z"/>
<path d="M578 1955 c-40 -22 -45 -52 -15 -82 42 -42 134 -48 177 -11 25 22 26
49 1 79 -23 29 -121 38 -163 14z"/>
</g>
</svg>
